<?xml version="1.0" encoding="utf-8"?>
<svg x="0pt" y="0pt" width="800pt" height="600pt" viewBox="0 0 800 600" xmlns="http://www.w3.org/2000/svg" xmlns:xlink="http://www.w3.org/1999/xlink">
  <g id="Layer 3">
    <path id="Path" style="fill:#000000;fill-opacity:1;fill-rule:nonzero;opacity:1;stroke:#000000;stroke-linecap:butt;stroke-linejoin:miter;stroke-miterlimit:10;stroke-opacity:1;stroke-width:1;" d="M141.379,321.225"/>
    <path id="Path" style="fill:#000000;fill-opacity:1;fill-rule:nonzero;opacity:1;stroke:#000000;stroke-linecap:butt;stroke-linejoin:miter;stroke-miterlimit:10;stroke-opacity:1;stroke-width:1;" d="M136.252,315.642 C136.252,315.642,146.296,329.194,146.296,329.194 C146.296,329.194,165.41,332.843,165.41,332.843 C165.41,332.843,165.41,336.875,165.41,336.875 C165.41,336.875,142.465,332.977,142.465,332.977 C142.465,332.977,128.012,318.329,130.724,317.654 C133.435,316.98,136.252,315.642,136.252,315.642 z"/>
    <path id="Path" style="fill:#000000;fill-opacity:1;fill-rule:nonzero;opacity:1;stroke:#000000;stroke-linecap:butt;stroke-linejoin:miter;stroke-miterlimit:10;stroke-opacity:1;stroke-width:1;" d="M136.341,286.094 C136.341,286.094,146.29,272.457,146.29,272.457 C146.29,272.457,165.41,268.647,165.41,268.647 C165.41,268.647,165.376,264.614,165.376,264.614 C165.376,264.614,142.42,268.706,142.42,268.706 C142.42,268.706,128.063,283.477,130.785,284.128 C133.507,284.779,136.341,286.094,136.341,286.094 z"/>
    <g id="Path">
      <path style="fill:#006736;fill-opacity:1;fill-rule:evenodd;opacity:1;stroke:none;" d="M114.627,300.721 C114.627,288.045,123.553,277.77,134.565,277.77 C134.565,277.77,143.881,277.77,143.881,277.77 C154.893,277.77,163.82,288.045,163.82,300.721 C163.82,300.721,163.82,300.721,163.82,300.721 C163.82,313.397,154.893,323.673,143.881,323.673 C143.881,323.673,134.565,323.673,134.565,323.673 C123.553,323.673,114.627,313.397,114.627,300.721 C114.627,300.721,114.627,300.721,114.627,300.721 z"/>
      <path style="fill:#000000;fill-opacity:1;fill-rule:nonzero;opacity:1;stroke:none;" d="M116.127,300.721 C116.127,300.21,116.142,299.704,116.172,299.202 C116.51,293.576,118.718,288.565,122.036,284.989 C125.36,281.41,129.751,279.272,134.565,279.27 C137.671,279.27,140.776,279.27,143.881,279.27 C148.909,279.272,153.479,281.605,156.847,285.476 C160.209,289.344,162.321,294.737,162.32,300.721 C162.321,306.706,160.209,312.099,156.847,315.967 C153.479,319.837,148.909,322.17,143.881,322.173 C140.776,322.173,137.671,322.173,134.565,322.173 C129.537,322.17,124.968,319.837,121.599,315.967 C118.237,312.099,116.126,306.706,116.127,300.721 z M113.127,300.721 C113.128,307.412,115.48,313.495,119.334,317.934 C123.182,322.37,128.581,325.175,134.565,325.173 C137.671,325.173,140.776,325.173,143.881,325.173 C149.865,325.175,155.265,322.37,159.112,317.934 C162.967,313.495,165.319,307.412,165.32,300.721 C165.319,294.03,162.967,287.947,159.112,283.508 C155.265,279.072,149.865,276.267,143.881,276.27 C140.776,276.27,137.671,276.27,134.565,276.27 C128.838,276.267,123.642,278.838,119.836,282.949 C116.024,287.062,113.558,292.722,113.178,299.022 C113.144,299.583,113.127,300.15,113.127,300.721 z"/>
    </g>
  </g>
</svg>
