<?xml version="1.0" encoding="utf-8"?>
<svg x="0pt" y="0pt" width="800pt" height="600pt" viewBox="0 0 800 600" xmlns="http://www.w3.org/2000/svg" xmlns:xlink="http://www.w3.org/1999/xlink">
  <g id="Layer 3">
    <path id="Path" style="fill:#000000;fill-opacity:1;fill-rule:nonzero;opacity:1;stroke:#000000;stroke-linecap:butt;stroke-linejoin:miter;stroke-miterlimit:10;stroke-opacity:1;stroke-width:1;" d="M141.379,321.225"/>
    <path id="Path" style="fill:#000000;fill-opacity:1;fill-rule:nonzero;opacity:1;stroke:#000000;stroke-linecap:butt;stroke-linejoin:miter;stroke-miterlimit:10;stroke-opacity:1;stroke-width:1;" d="M141.001,314.832 C141.001,314.832,146.955,324.442,146.955,324.442 C146.955,324.442,158.287,327.03,158.287,327.03 C158.287,327.03,158.287,329.889,158.287,329.889 C158.287,329.889,144.684,327.125,144.684,327.125 C144.684,327.125,136.116,316.738,137.723,316.259 C139.33,315.781,141.001,314.832,141.001,314.832 z"/>
    <path id="Path" style="fill:#000000;fill-opacity:1;fill-rule:nonzero;opacity:1;stroke:#000000;stroke-linecap:butt;stroke-linejoin:miter;stroke-miterlimit:10;stroke-opacity:1;stroke-width:1;" d="M142.097,287.845 C142.097,287.845,147.638,280.242,147.638,280.242 C147.638,280.242,158.287,278.118,158.287,278.118 C158.287,278.118,158.268,275.87,158.268,275.87 C158.268,275.87,145.482,278.151,145.482,278.151 C145.482,278.151,137.487,286.386,139.003,286.749 C140.519,287.112,142.097,287.845,142.097,287.845 z"/>
    <g id="Path">
      <path style="fill:#ff931d;fill-opacity:1;fill-rule:evenodd;opacity:1;stroke:none;" d="M120.126,302.164 C120.126,290.285,128.055,280.655,137.836,280.655 C137.836,280.655,146.11,280.655,146.11,280.655 C155.891,280.655,163.82,290.285,163.82,302.164 C163.82,302.164,163.82,302.164,163.82,302.164 C163.82,314.043,155.891,323.673,146.11,323.673 C146.11,323.673,137.836,323.673,137.836,323.673 C128.055,323.673,120.126,314.043,120.126,302.164 C120.126,302.164,120.126,302.164,120.126,302.164 z"/>
      <path style="fill:#000000;fill-opacity:1;fill-rule:nonzero;opacity:1;stroke:none;" d="M120.626,302.164 C120.626,301.668,120.64,301.177,120.668,300.69 C121.292,289.71,128.815,281.139,137.836,281.155 C140.594,281.155,143.352,281.155,146.11,281.155 C155.53,281.135,163.32,290.492,163.32,302.164 C163.32,313.836,155.53,323.193,146.11,323.173 C143.352,323.173,140.594,323.173,137.836,323.173 C128.416,323.193,120.626,313.836,120.626,302.164 z M119.626,302.164 C119.626,314.25,127.694,324.152,137.836,324.173 C140.594,324.173,143.352,324.173,146.11,324.173 C156.252,324.152,164.319,314.25,164.32,302.164 C164.319,290.078,156.252,280.176,146.11,280.155 C143.352,280.155,140.594,280.155,137.836,280.155 C128.126,280.172,120.316,289.257,119.669,300.633 C119.641,301.139,119.626,301.649,119.626,302.164 z"/>
    </g>
  </g>
</svg>
