<?xml version="1.0" encoding="utf-8"?>
<svg x="0pt" y="0pt" width="800pt" height="600pt" viewBox="0 0 800 600" xmlns="http://www.w3.org/2000/svg" xmlns:xlink="http://www.w3.org/1999/xlink">
  <g id="Layer 3">
    <path id="Path" style="fill:#000000;fill-opacity:1;fill-rule:evenodd;opacity:1;stroke:#000000;stroke-linecap:butt;stroke-linejoin:miter;stroke-miterlimit:10;stroke-opacity:1;stroke-width:1;" d="M488.434,351.842 C488.434,348.957,489.624,346.618,491.091,346.618 C491.091,346.618,527.063,346.618,527.063,346.618 C528.531,346.618,529.72,348.957,529.72,351.842 C529.72,351.842,529.72,351.842,529.72,351.842 C529.72,354.727,528.531,357.066,527.063,357.066 C527.063,357.066,491.091,357.066,491.091,357.066 C489.624,357.066,488.434,354.727,488.434,351.842 C488.434,351.842,488.434,351.842,488.434,351.842 z"/>
    <path id="Path" style="fill:#000000;fill-opacity:1;fill-rule:evenodd;opacity:1;stroke:#000000;stroke-linecap:butt;stroke-linejoin:miter;stroke-miterlimit:10;stroke-opacity:1;stroke-width:1;" d="M277.931,351.842 C277.931,348.957,279.121,346.618,280.589,346.618 C280.589,346.618,316.56,346.618,316.56,346.618 C318.028,346.618,319.218,348.957,319.218,351.842 C319.218,351.842,319.218,351.842,319.218,351.842 C319.218,354.727,318.028,357.066,316.56,357.066 C316.56,357.066,280.589,357.066,280.589,357.066 C279.121,357.066,277.931,354.727,277.931,351.842 C277.931,351.842,277.931,351.842,277.931,351.842 z"/>
    <path id="Path" style="fill:#000000;fill-opacity:1;fill-rule:evenodd;opacity:1;stroke:#000000;stroke-linecap:butt;stroke-linejoin:miter;stroke-miterlimit:10;stroke-opacity:1;stroke-width:1;" d="M277.931,210.022 C277.931,207.137,279.121,204.798,280.589,204.798 C280.589,204.798,316.56,204.798,316.56,204.798 C318.028,204.798,319.218,207.137,319.218,210.022 C319.218,210.022,319.218,210.022,319.218,210.022 C319.218,212.907,318.028,215.246,316.56,215.246 C316.56,215.246,280.589,215.246,280.589,215.246 C279.121,215.246,277.931,212.907,277.931,210.022 C277.931,210.022,277.931,210.022,277.931,210.022 z"/>
    <path id="Path" style="fill:#000000;fill-opacity:1;fill-rule:evenodd;opacity:1;stroke:#000000;stroke-linecap:butt;stroke-linejoin:miter;stroke-miterlimit:10;stroke-opacity:1;stroke-width:1;" d="M488.434,210.022 C488.434,207.137,489.624,204.798,491.091,204.798 C491.091,204.798,527.063,204.798,527.063,204.798 C528.531,204.798,529.72,207.137,529.72,210.022 C529.72,210.022,529.72,210.022,529.72,210.022 C529.72,212.907,528.531,215.246,527.063,215.246 C527.063,215.246,491.091,215.246,491.091,215.246 C489.624,215.246,488.434,212.907,488.434,210.022 C488.434,210.022,488.434,210.022,488.434,210.022 z"/>
    <path id="Path" style="fill:#c11c24;fill-opacity:1;fill-rule:evenodd;opacity:1;stroke:#c11c24;stroke-linecap:butt;stroke-linejoin:miter;stroke-miterlimit:10;stroke-opacity:1;stroke-width:1;" d="M218.369,215.022 C218.369,212.785,221.887,210.022,224.734,210.022 C224.734,210.022,287.418,210.022,287.418,210.022 C290.266,210.022,293.783,212.785,293.783,215.022 C293.783,215.022,293.783,346.842,293.783,346.842 C293.783,349.079,290.266,351.842,287.418,351.842 C287.418,351.842,224.734,351.842,224.734,351.842 C221.887,351.842,218.369,349.079,218.369,346.842 C218.369,346.842,218.369,215.022,218.369,215.022 z"/>
    <path id="Path" style="fill:#c11c24;fill-opacity:1;fill-rule:evenodd;opacity:1;stroke:#c11c24;stroke-linecap:butt;stroke-linejoin:miter;stroke-miterlimit:10;stroke-opacity:1;stroke-width:1;" d="M293.783,215.022 C293.783,212.785,300.421,210.022,305.795,210.022 C305.795,210.022,424.102,210.022,424.102,210.022 C429.475,210.022,436.114,212.785,436.114,215.022 C436.114,215.022,436.114,346.842,436.114,346.842 C436.114,349.079,429.475,351.842,424.102,351.842 C424.102,351.842,305.795,351.842,305.795,351.842 C300.421,351.842,293.783,349.079,293.783,346.842 C293.783,346.842,293.783,215.022,293.783,215.022 z"/>
    <path id="Path" style="fill:#c11c24;fill-opacity:1;fill-rule:evenodd;opacity:1;stroke:#c11c24;stroke-linecap:butt;stroke-linejoin:miter;stroke-miterlimit:10;stroke-opacity:1;stroke-width:1;" d="M436.114,215.022 C436.114,212.785,442.375,210.022,447.443,210.022 C447.443,210.022,559.03,210.022,559.03,210.022 C564.098,210.022,570.359,212.785,570.359,215.022 C570.359,215.022,570.359,346.842,570.359,346.842 C570.359,349.079,564.098,351.842,559.03,351.842 C559.03,351.842,447.443,351.842,447.443,351.842 C442.375,351.842,436.114,349.079,436.114,346.842 C436.114,346.842,436.114,215.022,436.114,215.022 z"/>
    <path id="Path" style="fill:#000000;fill-opacity:1;fill-rule:evenodd;opacity:1;stroke:#000000;stroke-linecap:butt;stroke-linejoin:miter;stroke-miterlimit:10;stroke-opacity:1;stroke-width:1;" d="M416.753,215.022 C416.753,212.785,419.376,210.022,421.498,210.022 C421.498,210.022,468.233,210.022,468.233,210.022 C470.356,210.022,472.978,212.785,472.978,215.022 C472.978,215.022,472.978,346.842,472.978,346.842 C472.978,349.079,470.356,351.842,468.233,351.842 C468.233,351.842,421.498,351.842,421.498,351.842 C419.376,351.842,416.753,349.079,416.753,346.842 C416.753,346.842,416.753,215.022,416.753,215.022 z"/>
    <path id="Path" style="fill:#000000;fill-opacity:1;fill-rule:evenodd;opacity:1;stroke:#000000;stroke-linecap:butt;stroke-linejoin:miter;stroke-miterlimit:10;stroke-opacity:1;stroke-width:1;" d="M266.983,215.022 C266.983,212.785,268.949,210.022,270.54,210.022 C270.54,210.022,305.568,210.022,305.568,210.022 C307.159,210.022,309.125,212.785,309.125,215.022 C309.125,215.022,309.125,346.842,309.125,346.842 C309.125,349.079,307.159,351.842,305.568,351.842 C305.568,351.842,270.54,351.842,270.54,351.842 C268.949,351.842,266.983,349.079,266.983,346.842 C266.983,346.842,266.983,215.022,266.983,215.022 z"/>
  </g>
</svg>
