<?xml version="1.0" encoding="utf-8"?>
<svg x="0pt" y="0pt" width="800pt" height="600pt" viewBox="0 0 800 600" xmlns="http://www.w3.org/2000/svg" xmlns:xlink="http://www.w3.org/1999/xlink">
  <g id="Layer 3">
    <path id="Path" style="fill:#000000;fill-opacity:1;fill-rule:evenodd;opacity:1;stroke:#000000;stroke-linecap:butt;stroke-linejoin:miter;stroke-miterlimit:10;stroke-opacity:1;stroke-width:1;" d="M501.637,386.441 C501.637,383.556,502.827,381.217,504.294,381.217 C504.294,381.217,540.266,381.217,540.266,381.217 C541.734,381.217,542.923,383.556,542.923,386.441 C542.923,386.441,542.923,386.441,542.923,386.441 C542.923,389.326,541.734,391.665,540.266,391.665 C540.266,391.665,504.294,391.665,504.294,391.665 C502.827,391.665,501.637,389.326,501.637,386.441 C501.637,386.441,501.637,386.441,501.637,386.441 z"/>
    <path id="Path" style="fill:#000000;fill-opacity:1;fill-rule:evenodd;opacity:1;stroke:#000000;stroke-linecap:butt;stroke-linejoin:miter;stroke-miterlimit:10;stroke-opacity:1;stroke-width:1;" d="M279.585,383.383 C279.585,380.498,280.775,378.159,282.242,378.159 C282.242,378.159,318.214,378.159,318.214,378.159 C319.681,378.159,320.871,380.498,320.871,383.383 C320.871,383.383,320.871,383.383,320.871,383.383 C320.871,386.268,319.681,388.607,318.214,388.607 C318.214,388.607,282.242,388.607,282.242,388.607 C280.775,388.607,279.585,386.268,279.585,383.383 C279.585,383.383,279.585,383.383,279.585,383.383 z"/>
    <path id="Path" style="fill:#000000;fill-opacity:1;fill-rule:evenodd;opacity:1;stroke:#000000;stroke-linecap:butt;stroke-linejoin:miter;stroke-miterlimit:10;stroke-opacity:1;stroke-width:1;" d="M277.931,210.022 C277.931,207.137,279.121,204.798,280.589,204.798 C280.589,204.798,316.56,204.798,316.56,204.798 C318.028,204.798,319.218,207.137,319.218,210.022 C319.218,210.022,319.218,210.022,319.218,210.022 C319.218,212.907,318.028,215.246,316.56,215.246 C316.56,215.246,280.589,215.246,280.589,215.246 C279.121,215.246,277.931,212.907,277.931,210.022 C277.931,210.022,277.931,210.022,277.931,210.022 z"/>
    <path id="Path" style="fill:#000000;fill-opacity:1;fill-rule:evenodd;opacity:1;stroke:#000000;stroke-linecap:butt;stroke-linejoin:miter;stroke-miterlimit:10;stroke-opacity:1;stroke-width:1;" d="M501.665,207.594 C501.665,204.709,502.855,202.37,504.322,202.37 C504.322,202.37,540.294,202.37,540.294,202.37 C541.762,202.37,542.952,204.709,542.952,207.594 C542.952,207.594,542.952,207.594,542.952,207.594 C542.952,210.479,541.762,212.818,540.294,212.818 C540.294,212.818,504.322,212.818,504.322,212.818 C502.855,212.818,501.665,210.479,501.665,207.594 C501.665,207.594,501.665,207.594,501.665,207.594 z"/>
    <path id="Path" style="fill:#ecb621;fill-opacity:1;fill-rule:evenodd;opacity:1;stroke:#ddd221;stroke-linecap:butt;stroke-linejoin:miter;stroke-miterlimit:10;stroke-opacity:1;stroke-width:6;" d="M214.066,216.584 C214.066,213.865,227.265,210.506,237.95,210.506 C237.95,210.506,473.191,210.506,473.191,210.506 C483.876,210.506,497.076,213.865,497.076,216.584 C497.076,216.584,497.076,376.821,497.076,376.821 C497.076,379.54,483.876,382.899,473.191,382.899 C473.191,382.899,237.95,382.899,237.95,382.899 C227.265,382.899,214.066,379.54,214.066,376.821 C214.066,376.821,214.066,216.584,214.066,216.584 z"/>
    <path id="Path" style="fill:#f3d221;fill-opacity:1;fill-rule:evenodd;opacity:1;stroke:#f3d221;stroke-linecap:butt;stroke-linejoin:miter;stroke-miterlimit:10;stroke-opacity:1;stroke-width:1;" d="M527.711,213.792 C527.711,210.979,530.898,207.503,533.478,207.503 C533.478,207.503,590.273,207.503,590.273,207.503 C592.853,207.503,596.039,210.979,596.039,213.792 C596.039,213.792,596.039,379.598,596.039,379.598 C596.039,382.412,592.853,385.888,590.273,385.888 C590.273,385.888,533.478,385.888,533.478,385.888 C530.898,385.888,527.711,382.412,527.711,379.598 C527.711,379.598,527.711,213.792,527.711,213.792 z"/>
    <path id="Path" style="fill:#000000;fill-opacity:1;fill-rule:evenodd;opacity:1;stroke:#000000;stroke-linecap:butt;stroke-linejoin:miter;stroke-miterlimit:10;stroke-opacity:1;stroke-width:1;" d="M482.805,213.792 C482.805,210.979,485.428,207.503,487.55,207.503 C487.55,207.503,534.285,207.503,534.285,207.503 C536.408,207.503,539.03,210.979,539.03,213.792 C539.03,213.792,539.03,379.598,539.03,379.598 C539.03,382.412,536.408,385.888,534.285,385.888 C534.285,385.888,487.55,385.888,487.55,385.888 C485.428,385.888,482.805,382.412,482.805,379.598 C482.805,379.598,482.805,213.792,482.805,213.792 z"/>
    <path id="Path" style="fill:#f3d221;fill-opacity:1;fill-rule:evenodd;opacity:1;stroke:#f3d221;stroke-linecap:butt;stroke-linejoin:miter;stroke-miterlimit:10;stroke-opacity:1;stroke-width:1;" d="M432.296,213.792 C432.296,210.979,434.991,207.503,437.173,207.503 C437.173,207.503,485.205,207.503,485.205,207.503 C487.386,207.503,490.081,210.979,490.081,213.792 C490.081,213.792,490.081,379.598,490.081,379.598 C490.081,382.412,487.386,385.888,485.205,385.888 C485.205,385.888,437.173,385.888,437.173,385.888 C434.991,385.888,432.296,382.412,432.296,379.598 C432.296,379.598,432.296,213.792,432.296,213.792 z"/>
  </g>
</svg>
